Coordinates
version=1
nRows=9
nColumns=42
inDegrees=yes

Units are S.I. units (second, meters, Newtons, ...)
If the header above contains a line with 'inDegrees', this indicates whether rotational values are in degrees (yes) or radians (no).

endheader
time	pelvis_tilt	pelvis_list	pelvis_rotation	pelvis_tx	pelvis_ty	pelvis_tz	hip_flexion_r	hip_adduction_r	hip_rotation_r	knee_angle_r	knee_angle_r_beta	ankle_angle_r	subtalar_angle_r	mtp_angle_r	hip_flexion_l	hip_adduction_l	hip_rotation_l	knee_angle_l	knee_angle_l_beta	ankle_angle_l	subtalar_angle_l	mtp_angle_l	lumbar_extension	lumbar_bending	lumbar_rotation	sh_tx_r	sh_ty_r	sh_tz_r	sh_plane_elev_r	sh_elev_r	sh_axial_rot_r	elbow_flex_r	pro_sup_r	sh_tx_l	sh_ty_l	sh_tz_l	sh_plane_elev_l	sh_elev_l	sh_axial_rot_l	elbow_flex_l	pro_sup_l
      2.16949150	     -3.98302321	      0.79411636	      2.38661611	      0.26528622	      0.94241129	     -0.06323579	      0.81446089	     -3.66640519	     -3.43853306	      1.31347684	      0.02292450	      1.72934988	     -7.08698673	     -7.49999985	      0.47536505	     -0.93474966	     -8.06858171	      0.58143623	      0.01014798	      5.89908855	      7.58927467	     -7.49999985	      3.00644822	     -5.20300628	     15.87735632	     -0.00833888	     -0.01486355	     -0.00818587	    -30.46849235	    121.77613657	    -34.16346370	     27.72783705	     12.38876637	      0.01460041	      0.00171962	     -0.00816457	     52.90484900	    147.51609469	    -21.40754548	      1.64315850	     21.70396951
      2.18644070	     -4.01024916	      0.84707544	      2.34681298	      0.26437015	      0.94570331	     -0.06288085	      0.87773858	     -3.72353590	     -3.42544606	      1.31285268	      0.02291360	      1.62565737	     -7.15469115	     -7.49999986	      0.53318957	     -0.86888181	     -8.17162893	      0.57508572	      0.01003714	      5.76371939	      7.60812709	     -7.49999986	      3.24287176	     -5.33248074	     15.84840592	     -0.00899627	     -0.01520901	     -0.00821740	    -29.70922766	    122.94722366	    -33.23068875	     26.58289482	     12.89110845	      0.01500718	      0.00289518	     -0.00815366	     53.71721972	    148.20057093	    -21.21928202	      1.56079550	     22.13956267
      2.20338980	     -4.06238864	      0.86174298	      2.34044584	      0.26545544	      0.94198506	     -0.06340387	      0.94864385	     -3.74570468	     -3.49091729	      1.29942799	      0.02267930	      1.47858191	     -7.39002502	     -7.49999986	      0.59407272	     -0.81047790	     -8.12793024	      0.56861896	      0.00992427	      5.75839533	      7.49839920	     -7.49999986	      3.44007708	     -5.35188989	     15.09256949	     -0.00895310	     -0.01534741	     -0.00825139	    -28.32047671	    124.24850489	    -33.74292060	     25.70975062	     12.73699347	      0.01419581	      0.00396063	     -0.00812944	     53.48436904	    149.11117031	    -21.56232454	      1.56299493	     21.71816086
      2.22033900	     -4.10215377	      0.88329399	      2.34633501	      0.26486281	      0.94242199	     -0.06467508	      1.00163155	     -3.77433202	     -3.61116895	      1.33728378	      0.02334001	      1.42862427	     -7.41428207	     -7.49999986	      0.64019492	     -0.77191740	     -8.17464206	      0.57776505	      0.01008390	      5.76474917	      7.47037243	     -7.49999986	      3.54354473	     -5.36854089	     14.93875142	     -0.00911432	     -0.01535962	     -0.00822367	    -28.16913033	    125.41261349	    -33.83977113	     25.73021778	     12.63951478	      0.01476734	      0.00484103	     -0.00809644	     53.82013642	    149.91891522	    -21.43907881	      1.61650822	     21.68520529
      2.23728810	     -4.16513157	      0.90235145	      2.31073722	      0.26695571	      0.94435400	     -0.06472275	      1.03852945	     -3.82452861	     -3.66974275	      1.33844295	      0.02336024	      1.33916982	     -7.26224139	     -7.49999986	      0.64836252	     -0.73228083	     -8.11924797	      0.58214082	      0.01016027	      5.74298350	      7.25922460	     -7.49999986	      4.00161125	     -5.32173367	     13.98850817	     -0.01035648	     -0.01610680	     -0.00830671	    -24.33400006	    127.23672526	    -31.45018365	     22.15814630	     10.75424631	      0.01381025	      0.00528264	     -0.00805671	     53.47483627	    150.48388938	    -20.97920468	      1.52871949	     21.25191567
      2.25423730	     -4.17744527	      0.93404479	      2.29684216	      0.26645712	      0.94787792	     -0.06281922	      1.01403457	     -3.82038370	     -3.54821686	      1.27984103	      0.02233744	      1.26403497	     -7.30716721	     -7.49999986	      0.60726611	     -0.69667117	     -7.92947469	      0.59093073	      0.01031369	      5.64269773	      6.92157287	     -7.49999986	      4.10329680	     -5.35250882	     13.52812406	     -0.01024454	     -0.01638075	     -0.00835016	    -23.15107460	    128.40325073	    -32.29141996	     21.33035232	     11.01156320	      0.01294809	      0.00494187	     -0.00805400	     53.18129324	    151.38356157	    -21.40620879	      1.55747940	     20.98909208
      2.27118640	     -4.15036340	      0.96677024	      2.21595960	      0.26652162	      0.94358551	     -0.06356476	      0.95371521	     -3.86554562	     -3.57218407	      1.25439415	      0.02189331	      1.20260148	     -7.19809605	     -7.49999987	      0.53662023	     -0.66068009	     -7.92847795	      0.60096793	      0.01048887	      5.65196039	      6.95189796	     -7.49999987	      4.27171036	     -5.07919337	     11.40896118	     -0.01137010	     -0.01687699	     -0.00843918	    -17.17520225	    130.69511635	    -29.69993602	     17.05652397	      9.02914345	      0.00936269	      0.00464590	     -0.00799670	     50.19471852	    151.94657807	    -20.94298985	      1.70846807	     19.06262357
      2.28813560	     -4.41430174	      0.98542119	      2.15327599	      0.26746342	      0.94433551	     -0.06277674	      1.49758041	     -3.87584952	     -3.57956580	      1.77591909	      0.03099564	      1.50050822	     -7.12112372	     -7.49999987	      1.03867345	     -0.68006981	     -7.89040041	      1.14371931	      0.01996167	      5.96472694	      6.82820301	     -7.49999987	      4.82422047	     -5.15527849	     10.65072780	     -0.00670557	     -0.01397840	     -0.00732290	    -17.23039990	    131.14986476	    -32.69102004	     18.68512268	     16.35644999	      0.00792471	      0.00575653	     -0.00680209	     48.94983162	    152.68598964	    -22.30087968	      3.53400993	     23.66900931
      2.30508470	     -4.18345624	      0.98223678	      2.12245323	      0.26704753	      0.94176568	     -0.06245416	      0.90756298	     -3.80522369	     -3.52927189	      1.14574483	      0.01999702	      1.24773879	     -7.11597572	     -7.49999987	      0.44913743	     -0.65000741	     -7.68314723	      0.60540159	      0.01056625	      5.86422677	      6.87165362	     -7.49999987	      4.73213218	     -4.61039930	      7.43447232	     -0.01369344	     -0.01738372	     -0.00850989	     -5.71072071	    134.35199635	    -26.92875233	      9.90278098	      8.62120072	      0.00295064	      0.00405678	     -0.00784015	     44.85055032	    153.03099752	    -21.15230606	      2.00562860	     18.53129195
